<svg xmlns="http://www.w3.org/2000/svg" xmlns:xlink="http://www.w3.org/1999/xlink" xml:lang="en" height="776.494pt" width="1629.2098pt" viewBox="-92.73379999999999 -747.7700000000001 1629.2098 776.494"><polygon points="-7.7399999999999896,-164.86200000000002 1.0758399665829583e-14,-175.698 7.740000000000011,-164.86200000000002 " style="stroke:black;fill:none;stroke-width:2.0;stroke-dasharray:-;stroke-linecap:round;stroke-linejoin:round;" /><polygon points="-7.7399999999999896,-505.42199999999997 1.0758399665829583e-14,-516.258 7.740000000000011,-505.42199999999997 " style="stroke:black;fill:none;stroke-width:2.0;stroke-dasharray:-;stroke-linecap:round;stroke-linejoin:round;" /><polygon points="116.10000000000002,-164.86200000000002 123.84,-175.698 131.58,-164.86200000000002 " style="stroke:black;fill:none;stroke-width:2.0;stroke-dasharray:-;stroke-linecap:round;stroke-linejoin:round;" /><polygon points="116.10000000000002,-505.42199999999997 123.84,-516.258 131.58,-505.42199999999997 " style="stroke:black;fill:none;stroke-width:2.0;stroke-dasharray:-;stroke-linecap:round;stroke-linejoin:round;" /><polygon points="332.82,-559.602 340.56,-570.438 348.3,-559.602 " style="stroke:black;fill:none;stroke-width:2.0;stroke-dasharray:-;stroke-linecap:round;stroke-linejoin:round;" /><circle cx="713.628" cy="-603.72" r="17.028000000000002" style="stroke:black;fill:none;stroke-width:2.0;stroke-dasharray:-;" /><polygon points="859.14,-327.402 866.88,-338.23800000000006 874.62,-327.402 " style="stroke:black;fill:none;stroke-width:2.0;stroke-dasharray:-;stroke-linecap:round;stroke-linejoin:round;" /><polygon points="874.62,-260.838 866.88,-250.00199999999998 859.14,-260.838 " style="stroke:black;fill:none;stroke-width:2.0;stroke-dasharray:-;stroke-linecap:round;stroke-linejoin:round;" /><polygon points="1230.66,-327.402 1238.4,-338.23800000000006 1246.14,-327.402 " style="stroke:black;fill:none;stroke-width:2.0;stroke-dasharray:-;stroke-linecap:round;stroke-linejoin:round;" /><path d="M 1106.34 -329.45 a 4.179600000000001 9.675 -270 0 1 16.440000000000055 0.0" style="stroke:black;fill:none;stroke-width:2.0;stroke-dasharray:-;" /><path d="M 0.0,-0.0 L 1.0094886030051547e-14,-164.86200000000002 M -7.739999999999989,-175.698 L 7.740000000000011,-175.698 M 1.0758399665829583e-14,-175.698 L 2.0853285695881132e-14,-340.56" style="stroke:black;fill:none;stroke-width:2.0;stroke-dasharray:-;stroke-linecap:round;stroke-linejoin:round;" /><path d="M 0.0,-340.56 L 1.0094886030051547e-14,-505.42199999999997 M -7.739999999999989,-516.258 L 7.740000000000011,-516.258 M 1.0758399665829583e-14,-516.258 L 2.0853285695881132e-14,-681.12" style="stroke:black;fill:none;stroke-width:2.0;stroke-dasharray:-;stroke-linecap:round;stroke-linejoin:round;" /><path d="M 123.84,-0.0 L 123.84,-164.86200000000002 M 116.10000000000002,-175.698 L 131.58,-175.698 M 123.84,-175.698 L 123.84000000000003,-340.56" style="stroke:black;fill:none;stroke-width:2.0;stroke-dasharray:-;stroke-linecap:round;stroke-linejoin:round;" /><path d="M 123.84,-340.56 L 123.84,-505.42199999999997 M 116.10000000000002,-516.258 L 131.58,-516.258 M 123.84,-516.258 L 123.84000000000003,-681.12" style="stroke:black;fill:none;stroke-width:2.0;stroke-dasharray:-;stroke-linecap:round;stroke-linejoin:round;" /><path d="M 0.0,-340.56 L -23.22,-340.56 L -46.44,-340.56" style="stroke:black;fill:none;stroke-width:2.0;stroke-dasharray:-;stroke-linecap:round;stroke-linejoin:round;" /><path d="M 123.84,-340.56 L 147.06,-340.56 L 170.28,-340.56" style="stroke:black;fill:none;stroke-width:2.0;stroke-dasharray:-;stroke-linecap:round;stroke-linejoin:round;" /><path d="M 0.0,-681.12 L 61.92,-681.12 L 123.84,-681.12" style="stroke:black;fill:none;stroke-width:2.0;stroke-dasharray:-;stroke-linecap:round;stroke-linejoin:round;" /><path d="M 0.0,-0.0 L 61.92,-0.0 L 123.84,-0.0" style="stroke:black;fill:none;stroke-width:2.0;stroke-dasharray:-;stroke-linecap:round;stroke-linejoin:round;" /><path d="M 61.92,-0.0 L 61.92,12.384 L 54.18,12.384 L 69.66,12.384 M 56.502,16.0992 L 67.338,16.0992 M 60.372,19.814400000000003 L 63.467999999999996,19.814400000000003" style="stroke:black;fill:none;stroke-width:2.0;stroke-dasharray:-;stroke-linecap:round;stroke-linejoin:round;" /><path d="M 61.92,-681.12 L 650.16,-681.12 L 1238.4,-681.12" style="stroke:black;fill:none;stroke-width:2.0;stroke-dasharray:-;stroke-linecap:round;stroke-linejoin:round;" /><path d="M 61.92,-0.0 L 712.08,-0.0 L 1362.24,-0.0" style="stroke:black;fill:none;stroke-width:2.0;stroke-dasharray:-;stroke-linecap:round;stroke-linejoin:round;" /><path d="M 216.72,-681.12 L 216.72,-657.9 L 224.46,-655.32 L 208.98000000000002,-650.16 L 224.46,-645.0 L 208.98000000000002,-639.84 L 224.46,-634.6800000000001 L 208.98000000000002,-629.52 L 216.72,-626.94 L 216.71999999999997,-603.72" style="stroke:black;fill:none;stroke-width:2.0;stroke-dasharray:-;stroke-linecap:round;stroke-linejoin:round;" /><path d="M 216.71999999999997,-603.72 L 216.71999999999997,-580.5 L 224.45999999999998,-577.9200000000001 L 208.98,-572.76 L 224.45999999999998,-567.6 L 208.98,-562.44 L 224.45999999999998,-557.28 L 208.98,-552.12 L 216.71999999999997,-549.54 L 216.71999999999994,-526.32" style="stroke:black;fill:none;stroke-width:2.0;stroke-dasharray:-;stroke-linecap:round;stroke-linejoin:round;" /><path d="M 216.71999999999994,-526.32 L 216.71999999999994,-503.1 L 224.45999999999995,-500.52000000000004 L 208.97999999999996,-495.36 L 224.45999999999995,-490.20000000000005 L 208.97999999999996,-485.04 L 224.45999999999995,-479.88 L 208.97999999999996,-474.72 L 216.71999999999994,-472.14 L 216.7199999999999,-448.92" style="stroke:black;fill:none;stroke-width:2.0;stroke-dasharray:-;stroke-linecap:round;stroke-linejoin:round;" /><path d="M 216.7199999999999,-448.92 L 216.7199999999999,-425.7 L 224.45999999999992,-423.12 L 208.97999999999993,-417.96000000000004 L 224.45999999999992,-412.8 L 208.97999999999993,-407.64 L 224.45999999999992,-402.48 L 208.97999999999993,-397.32000000000005 L 216.7199999999999,-394.74 L 216.71999999999989,-371.52" style="stroke:black;fill:none;stroke-width:2.0;stroke-dasharray:-;stroke-linecap:round;stroke-linejoin:round;" /><path d="M 216.71999999999989,-371.52 L 216.71999999999989,-348.3 L 224.4599999999999,-345.71999999999997 L 208.9799999999999,-340.56 L 224.4599999999999,-335.40000000000003 L 208.9799999999999,-330.24 L 224.4599999999999,-325.08 L 208.9799999999999,-319.92 L 216.71999999999989,-317.34000000000003 L 216.71999999999986,-294.12" style="stroke:black;fill:none;stroke-width:2.0;stroke-dasharray:-;stroke-linecap:round;stroke-linejoin:round;" /><path d="M 216.71999999999986,-294.12 L 216.71999999999983,-147.06 L 216.7199999999998,-0.0" style="stroke:black;fill:none;stroke-width:2.0;stroke-dasharray:-;stroke-linecap:round;stroke-linejoin:round;" /><path d="M 340.56,-681.12 L 340.56,-657.9 L 348.3,-655.32 L 332.82,-650.16 L 348.3,-645.0 L 332.82,-639.84 L 348.3,-634.6800000000001 L 332.82,-629.52 L 340.56,-626.94 L 340.56,-603.72" style="stroke:black;fill:none;stroke-width:2.0;stroke-dasharray:-;stroke-linecap:round;stroke-linejoin:round;" /><path d="M 340.56,-526.32 L 340.56,-559.602 M 332.82,-570.438 L 348.3,-570.438 M 340.56,-570.438 L 340.56,-603.72" style="stroke:black;fill:none;stroke-width:2.0;stroke-dasharray:-;stroke-linecap:round;stroke-linejoin:round;" /><path d="M 332.82,-570.438 L 329.72400000000005,-573.534" style="stroke:black;fill:none;stroke-width:2.0;stroke-dasharray:-;stroke-linecap:round;stroke-linejoin:round;" /><path d="M 348.3,-570.438 L 351.396,-567.342" style="stroke:black;fill:none;stroke-width:2.0;stroke-dasharray:-;stroke-linecap:round;stroke-linejoin:round;" /><path d="M 340.56,-526.32 L 340.56,-490.4064 M 348.3,-490.4064 L 332.82,-490.4064 M 348.3,-484.8336 L 332.82,-484.8336 M 340.56,-484.8336 L 340.56,-448.92" style="stroke:black;fill:none;stroke-width:2.0;stroke-dasharray:-;stroke-linecap:round;stroke-linejoin:round;" /><path d="M 340.56,-448.92 L 340.55999999999995,-224.46 L 340.55999999999995,-0.0" style="stroke:black;fill:none;stroke-width:2.0;stroke-dasharray:-;stroke-linecap:round;stroke-linejoin:round;" /><path d="M 433.44,-681.12 L 433.44,-657.9 L 441.18,-655.32 L 425.7,-650.16 L 441.18,-645.0 L 425.7,-639.84 L 441.18,-634.6800000000001 L 425.7,-629.52 L 433.44,-626.94 L 433.44,-603.72" style="stroke:black;fill:none;stroke-width:2.0;stroke-dasharray:-;stroke-linecap:round;stroke-linejoin:round;" /><path d="M 433.44,-603.72 L 433.44,-590.8199999999999 L 454.08,-590.8199999999999 L 454.08,-570.1800000000001 L 433.44,-570.1800000000001 L 433.44,-557.28" style="stroke:black;fill:none;stroke-width:2.0;stroke-dasharray:-;stroke-linecap:round;stroke-linejoin:round;" /><path d="M 459.24,-590.8199999999999 L 459.24,-570.1800000000001" style="stroke:black;fill:none;stroke-width:2.0;stroke-dasharray:-;stroke-linecap:round;stroke-linejoin:round;" /><path d="M 459.24,-580.5 L 475.752,-580.5" style="stroke:black;fill:none;stroke-width:2.0;stroke-dasharray:-;stroke-linecap:round;stroke-linejoin:round;" /><path d="M 433.44,-557.28 L 433.43999999999994,-278.64 L 433.4399999999999,-0.0" style="stroke:black;fill:none;stroke-width:2.0;stroke-dasharray:-;stroke-linecap:round;stroke-linejoin:round;" /><path d="M 475.752,-580.5 L 498.97200000000004,-580.5 L 501.55199999999996,-588.24 L 506.71200000000005,-572.76 L 511.87200000000007,-588.24 L 517.032,-572.76 L 522.192,-588.24 L 527.3520000000001,-572.76 L 529.932,-580.5 L 553.152,-580.5" style="stroke:black;fill:none;stroke-width:2.0;stroke-dasharray:-;stroke-linecap:round;stroke-linejoin:round;" /><path d="M 619.2,-681.12 L 619.2,-657.9 L 626.94,-655.32 L 611.46,-650.16 L 626.94,-645.0 L 611.46,-639.84 L 626.94,-634.6800000000001 L 611.46,-629.52 L 619.2,-626.94 L 619.2,-603.72" style="stroke:black;fill:none;stroke-width:2.0;stroke-dasharray:-;stroke-linecap:round;stroke-linejoin:round;" /><path d="M 619.2,-603.72 L 619.2,-580.5 L 626.94,-577.9200000000001 L 611.46,-572.76 L 626.94,-567.6 L 611.46,-562.44 L 626.94,-557.28 L 611.46,-552.12 L 619.2,-549.54 L 619.2,-526.32" style="stroke:black;fill:none;stroke-width:2.0;stroke-dasharray:-;stroke-linecap:round;stroke-linejoin:round;" /><path d="M 619.2,-526.32 L 619.2,-263.16 L 619.1999999999999,-0.0" style="stroke:black;fill:none;stroke-width:2.0;stroke-dasharray:-;stroke-linecap:round;stroke-linejoin:round;" /><path d="M 619.2,-603.72 L 642.4200000000001,-603.72 L 645.0,-611.46 L 650.16,-595.98 L 655.32,-611.46 L 660.48,-595.98 L 665.64,-611.46 L 670.8000000000001,-595.98 L 673.38,-603.72 L 696.6,-603.72" style="stroke:black;fill:none;stroke-width:2.0;stroke-dasharray:-;stroke-linecap:round;stroke-linejoin:round;" /><path d="M 696.6,-603.72 L 707.952,-603.72" style="stroke:black;fill:none;stroke-width:2.0;stroke-dasharray:-;stroke-linecap:round;stroke-linejoin:round;" /><path d="M 707.952,-615.072 L 707.952,-592.368" style="stroke:black;fill:none;stroke-width:2.0;stroke-dasharray:-;stroke-linecap:round;stroke-linejoin:round;" /><path d="M 707.952,-609.3960000000001 L 719.8716,-619.6128 L 719.8716,-625.2887999999999" style="stroke:black;fill:none;stroke-width:2.0;stroke-dasharray:-;stroke-linecap:round;stroke-linejoin:round;" /><path d="M 707.952,-598.044 L 719.8716,-587.8272000000001 L 719.8716,-582.1512" style="stroke:black;fill:none;stroke-width:2.0;stroke-dasharray:-;stroke-linecap:round;stroke-linejoin:round;" /><path d="M 707.952,-598.044 L 713.9949538976925,-592.8643252305493" style="stroke:black;fill:none;stroke-width:2.0;stroke-dasharray:-;stroke-linecap:round;stroke-linejoin:round;" /><path d="M 718.3530867952694 -589.128782746912 L 711.9801038054728 -590.5136667896263 L 716.0098039899123 -595.2149836714723 Z" style="stroke:black;fill:black;stroke-linecap:butt;stroke-linejoin:miter;" /><path d="M 719.8716,-582.1512 L 719.8716,-291.0756 L 719.8715999999998,-0.0" style="stroke:black;fill:none;stroke-width:2.0;stroke-dasharray:-;stroke-linecap:round;stroke-linejoin:round;" /><path d="M 719.8716,-625.2887999999999 L 719.8716,-663.9888 L 719.8716,-702.6888" style="stroke:black;fill:none;stroke-width:2.0;stroke-dasharray:-;stroke-linecap:round;stroke-linejoin:round;" /><path d="M 866.88,-681.12 L 866.88,-657.9 L 874.62,-655.32 L 859.14,-650.16 L 874.62,-645.0 L 859.14,-639.84 L 874.62,-634.6800000000001 L 859.14,-629.52 L 866.88,-626.94 L 866.88,-603.72" style="stroke:black;fill:none;stroke-width:2.0;stroke-dasharray:-;stroke-linecap:round;stroke-linejoin:round;" /><path d="M 866.88,-603.72 L 866.88,-580.5 L 874.62,-577.9200000000001 L 859.14,-572.76 L 874.62,-567.6 L 859.14,-562.44 L 874.62,-557.28 L 859.14,-552.12 L 866.88,-549.54 L 866.88,-526.32" style="stroke:black;fill:none;stroke-width:2.0;stroke-dasharray:-;stroke-linecap:round;stroke-linejoin:round;" /><path d="M 866.88,-526.32 L 866.88,-503.1 L 874.62,-500.52000000000004 L 859.14,-495.36 L 874.62,-490.20000000000005 L 859.14,-485.04 L 874.62,-479.88 L 859.14,-474.72 L 866.88,-472.14 L 866.88,-448.92" style="stroke:black;fill:none;stroke-width:2.0;stroke-dasharray:-;stroke-linecap:round;stroke-linejoin:round;" /><path d="M 866.88,-448.92 L 866.88,-425.7 L 874.62,-423.12 L 859.14,-417.96000000000004 L 874.62,-412.8 L 859.14,-407.64 L 874.62,-402.48 L 859.14,-397.32000000000005 L 866.88,-394.74 L 866.88,-371.52" style="stroke:black;fill:none;stroke-width:2.0;stroke-dasharray:-;stroke-linecap:round;stroke-linejoin:round;" /><path d="M 866.88,-294.12 L 866.88,-327.402 M 859.14,-338.23800000000006 L 874.62,-338.23800000000006 M 866.88,-338.23800000000006 L 866.88,-371.52" style="stroke:black;fill:none;stroke-width:2.0;stroke-dasharray:-;stroke-linecap:round;stroke-linejoin:round;" /><path d="M 859.14,-338.23800000000006 L 856.044,-341.334" style="stroke:black;fill:none;stroke-width:2.0;stroke-dasharray:-;stroke-linecap:round;stroke-linejoin:round;" /><path d="M 874.62,-338.23800000000006 L 877.7160000000001,-335.142" style="stroke:black;fill:none;stroke-width:2.0;stroke-dasharray:-;stroke-linecap:round;stroke-linejoin:round;" /><path d="M 866.88,-294.12 L 866.88,-260.838 M 874.62,-250.00199999999998 L 859.14,-250.00199999999998 M 866.88,-250.00199999999998 L 866.88,-216.72" style="stroke:black;fill:none;stroke-width:2.0;stroke-dasharray:-;stroke-linecap:round;stroke-linejoin:round;" /><path d="M 878.49,-253.09800000000004 L 886.6588384639654,-248.4300923063055" style="stroke:black;fill:none;stroke-width:2.0;stroke-dasharray:-;stroke-linecap:round;stroke-linejoin:round;" /><path d="M 890.298513715751 -246.35027787671368 L 885.4300015414431 -246.27962769189168 L 887.8876753864874 -250.5805569207194 Z" style="stroke:black;fill:black;stroke-linecap:butt;stroke-linejoin:miter;" /><path d="M 878.49,-260.064 L 886.6588384639654,-255.39609230630555" style="stroke:black;fill:none;stroke-width:2.0;stroke-dasharray:-;stroke-linecap:round;stroke-linejoin:round;" /><path d="M 890.298513715751 -253.31627787671368 L 885.4300015414431 -253.24562769189168 L 887.8876753864874 -257.5465569207194 Z" style="stroke:black;fill:black;stroke-linecap:butt;stroke-linejoin:miter;" /><path d="M 866.88,-216.72 L 866.88,-108.36 L 866.88,-0.0" style="stroke:black;fill:none;stroke-width:2.0;stroke-dasharray:-;stroke-linecap:round;stroke-linejoin:round;" /><path d="M 1021.6800000000001,-681.12 L 1021.6800000000001,-657.9 L 1029.42,-655.32 L 1013.94,-650.16 L 1029.42,-645.0 L 1013.94,-639.84 L 1029.42,-634.6800000000001 L 1013.94,-629.52 L 1021.6800000000001,-626.94 L 1021.6800000000001,-603.72" style="stroke:black;fill:none;stroke-width:2.0;stroke-dasharray:-;stroke-linecap:round;stroke-linejoin:round;" /><path d="M 1021.6800000000001,-603.72 L 1021.6800000000001,-580.5 L 1029.42,-577.9200000000001 L 1013.94,-572.76 L 1029.42,-567.6 L 1013.94,-562.44 L 1029.42,-557.28 L 1013.94,-552.12 L 1021.6800000000001,-549.54 L 1021.6800000000001,-526.32" style="stroke:black;fill:none;stroke-width:2.0;stroke-dasharray:-;stroke-linecap:round;stroke-linejoin:round;" /><path d="M 1021.6800000000001,-526.32 L 1021.6800000000001,-503.1 L 1029.42,-500.52000000000004 L 1013.94,-495.36 L 1029.42,-490.20000000000005 L 1013.94,-485.04 L 1029.42,-479.88 L 1013.94,-474.72 L 1021.6800000000001,-472.14 L 1021.6800000000001,-448.92" style="stroke:black;fill:none;stroke-width:2.0;stroke-dasharray:-;stroke-linecap:round;stroke-linejoin:round;" /><path d="M 1021.6800000000001,-448.92 L 1021.6800000000001,-425.7 L 1029.42,-423.12 L 1013.94,-417.96000000000004 L 1029.42,-412.8 L 1013.94,-407.64 L 1029.42,-402.48 L 1013.94,-397.32000000000005 L 1021.6800000000001,-394.74 L 1021.6800000000001,-371.52" style="stroke:black;fill:none;stroke-width:2.0;stroke-dasharray:-;stroke-linecap:round;stroke-linejoin:round;" /><path d="M 1021.6800000000001,-371.52 L 1021.6800000000001,-348.3 L 1029.42,-345.71999999999997 L 1013.94,-340.56 L 1029.42,-335.40000000000003 L 1013.94,-330.24 L 1029.42,-325.08 L 1013.94,-319.92 L 1021.6800000000001,-317.34000000000003 L 1021.6800000000001,-294.12" style="stroke:black;fill:none;stroke-width:2.0;stroke-dasharray:-;stroke-linecap:round;stroke-linejoin:round;" /><path d="M 1021.6800000000001,-294.12 L 1021.6800000000001,-270.90000000000003 L 1029.42,-268.32 L 1013.94,-263.16 L 1029.42,-258.0 L 1013.94,-252.83999999999997 L 1029.42,-247.68 L 1013.94,-242.52000000000004 L 1021.6800000000001,-239.94 L 1021.6800000000001,-216.72" style="stroke:black;fill:none;stroke-width:2.0;stroke-dasharray:-;stroke-linecap:round;stroke-linejoin:round;" /><path d="M 1021.6800000000001,-216.72 L 1021.6800000000001,-193.5 L 1029.42,-190.92000000000002 L 1013.94,-185.76 L 1029.42,-180.60000000000002 L 1013.94,-175.44000000000003 L 1029.42,-170.28 L 1013.94,-165.12000000000003 L 1021.6800000000001,-162.54 L 1021.6800000000001,-139.32" style="stroke:black;fill:none;stroke-width:2.0;stroke-dasharray:-;stroke-linecap:round;stroke-linejoin:round;" /><path d="M 1021.6800000000001,-139.32 L 1021.6800000000001,-69.66 L 1021.6800000000001,-0.0" style="stroke:black;fill:none;stroke-width:2.0;stroke-dasharray:-;stroke-linecap:round;stroke-linejoin:round;" /><path d="M 1238.4,-681.12 L 1238.4,-657.9 L 1246.14,-655.32 L 1230.66,-650.16 L 1246.14,-645.0 L 1230.66,-639.84 L 1246.14,-634.6800000000001 L 1230.66,-629.52 L 1238.4,-626.94 L 1238.4,-603.72" style="stroke:black;fill:none;stroke-width:2.0;stroke-dasharray:-;stroke-linecap:round;stroke-linejoin:round;" /><path d="M 1238.4,-603.72 L 1238.4,-580.5 L 1246.14,-577.9200000000001 L 1230.66,-572.76 L 1246.14,-567.6 L 1230.66,-562.44 L 1246.14,-557.28 L 1230.66,-552.12 L 1238.4,-549.54 L 1238.4,-526.32" style="stroke:black;fill:none;stroke-width:2.0;stroke-dasharray:-;stroke-linecap:round;stroke-linejoin:round;" /><path d="M 1238.4,-526.32 L 1238.4,-503.1 L 1246.14,-500.52000000000004 L 1230.66,-495.36 L 1246.14,-490.20000000000005 L 1230.66,-485.04 L 1246.14,-479.88 L 1230.66,-474.72 L 1238.4,-472.14 L 1238.4,-448.92" style="stroke:black;fill:none;stroke-width:2.0;stroke-dasharray:-;stroke-linecap:round;stroke-linejoin:round;" /><path d="M 1238.4,-448.92 L 1238.4,-425.7 L 1246.14,-423.12 L 1230.66,-417.96000000000004 L 1246.14,-412.8 L 1230.66,-407.64 L 1246.14,-402.48 L 1230.66,-397.32000000000005 L 1238.4,-394.74 L 1238.4,-371.52" style="stroke:black;fill:none;stroke-width:2.0;stroke-dasharray:-;stroke-linecap:round;stroke-linejoin:round;" /><path d="M 1238.4,-294.12 L 1238.4,-327.402 M 1230.66,-338.23800000000006 L 1246.14,-338.23800000000006 M 1238.4,-338.23800000000006 L 1238.4,-371.52" style="stroke:black;fill:none;stroke-width:2.0;stroke-dasharray:-;stroke-linecap:round;stroke-linejoin:round;" /><path d="M 1230.66,-338.23800000000006 L 1227.564,-341.334" style="stroke:black;fill:none;stroke-width:2.0;stroke-dasharray:-;stroke-linecap:round;stroke-linejoin:round;" /><path d="M 1246.14,-338.23800000000006 L 1249.236,-335.142" style="stroke:black;fill:none;stroke-width:2.0;stroke-dasharray:-;stroke-linecap:round;stroke-linejoin:round;" /><path d="M 1238.4,-294.12 L 1238.4,-147.06 L 1238.4,-0.0" style="stroke:black;fill:none;stroke-width:2.0;stroke-dasharray:-;stroke-linecap:round;stroke-linejoin:round;" /><path d="M 1238.4,-371.52 L 1176.48,-371.52 L 1114.56,-371.52" style="stroke:black;fill:none;stroke-width:2.0;stroke-dasharray:-;stroke-linecap:round;stroke-linejoin:round;" /><path d="M 1114.56,-371.52 L 1114.56,-335.6064 M 1122.3,-335.6064 L 1106.82,-335.6064 M 1114.56,-330.03360000000004 L 1114.56,-294.12" style="stroke:black;fill:none;stroke-width:2.0;stroke-dasharray:-;stroke-linecap:round;stroke-linejoin:round;" /><path d="M 1114.56,-294.12 L 1114.56,-147.06 L 1114.56,-0.0" style="stroke:black;fill:none;stroke-width:2.0;stroke-dasharray:-;stroke-linecap:round;stroke-linejoin:round;" /><path d="M 1176.48,-371.52 L 1176.48,-335.6064 M 1184.22,-335.6064 L 1168.74,-335.6064 M 1184.22,-330.03360000000004 L 1168.74,-330.03360000000004 M 1176.48,-330.03360000000004 L 1176.48,-294.12" style="stroke:black;fill:none;stroke-width:2.0;stroke-dasharray:-;stroke-linecap:round;stroke-linejoin:round;" /><path d="M 1176.48,-294.12 L 1176.48,-147.06 L 1176.48,-0.0" style="stroke:black;fill:none;stroke-width:2.0;stroke-dasharray:-;stroke-linecap:round;stroke-linejoin:round;" /><path d="M 1114.56,-0.0 L 1176.48,-0.0 L 1238.4,-0.0" style="stroke:black;fill:none;stroke-width:2.0;stroke-dasharray:-;stroke-linecap:round;stroke-linejoin:round;" /><path d="M 1021.6800000000001,-294.12 L 1199.7,-294.12 L 1377.72,-294.12" style="stroke:black;fill:none;stroke-width:2.0;stroke-dasharray:-;stroke-linecap:round;stroke-linejoin:round;" /><path d="M 1238.4,-371.52 L 1308.06,-371.52 L 1377.72,-371.52" style="stroke:black;fill:none;stroke-width:2.0;stroke-dasharray:-;stroke-linecap:round;stroke-linejoin:round;" /><path d="M 1238.4,-0.0 L 1308.06,-0.0 L 1377.72,-0.0" style="stroke:black;fill:none;stroke-width:2.0;stroke-dasharray:-;stroke-linecap:round;stroke-linejoin:round;" /><path d="M 1377.72,-427.24800000000005 L 1455.1200000000001,-427.24800000000005 L 1532.52,-427.24800000000005" style="stroke:black;fill:none;stroke-width:2.0;stroke-dasharray:-;stroke-linecap:round;stroke-linejoin:round;" /><path d="M 1532.52,-427.24800000000005 L 1532.52,-201.24 L 1532.52,24.768000000000022" style="stroke:black;fill:none;stroke-width:2.0;stroke-dasharray:-;stroke-linecap:round;stroke-linejoin:round;" /><path d="M 1532.52,24.768 L 1455.1200000000001,24.76799999999999 L 1377.72,24.767999999999983" style="stroke:black;fill:none;stroke-width:2.0;stroke-dasharray:-;stroke-linecap:round;stroke-linejoin:round;" /><path d="M 1377.72,24.768 L 1377.72,-201.24000000000004 L 1377.72,-427.24800000000005" style="stroke:black;fill:none;stroke-width:2.0;stroke-dasharray:-;stroke-linecap:round;stroke-linejoin:round;" /><path d="M 1377.72,-0.0 L 1388.556,-0.0 L 1399.392,-0.0" style="stroke:black;fill:none;stroke-width:2.0;stroke-dasharray:-;stroke-linecap:round;stroke-linejoin:round;" /><path d="M 1377.72,-294.12 L 1388.556,-294.12 L 1399.392,-294.12" style="stroke:black;fill:none;stroke-width:2.0;stroke-dasharray:-;stroke-linecap:round;stroke-linejoin:round;" /><path d="M 1377.72,-371.52 L 1388.556,-371.52 L 1399.392,-371.52" style="stroke:black;fill:none;stroke-width:2.0;stroke-dasharray:-;stroke-linecap:round;stroke-linejoin:round;" /><text x="17.028000000000002" y="-186.876" dominant-baseline="central" fill="black" font-size="9" font-family="sans" text-anchor="start"><tspan x="17.028000000000002" dy="9">D4</tspan><tspan x="17.028000000000002" dy="9">1N4007</tspan></text><text x="17.028000000000002" y="-527.436" dominant-baseline="central" fill="black" font-size="9" font-family="sans" text-anchor="start"><tspan x="17.028000000000002" dy="9">D1</tspan><tspan x="17.028000000000002" dy="9">1N4007</tspan></text><text x="100.62" y="-186.876" dominant-baseline="central" fill="black" font-size="9" font-family="sans" text-anchor="end"><tspan x="100.62" dy="9">D2</tspan><tspan x="100.62" dy="9">1N4007</tspan></text><text x="100.62" y="-527.436" dominant-baseline="central" fill="black" font-size="9" font-family="sans" text-anchor="end"><tspan x="100.62" dy="9">D3</tspan><tspan x="100.62" dy="9">1N4007</tspan></text><text x="111.456" y="-708.696" dominant-baseline="central" fill="black" font-size="9" font-family="sans" text-anchor="middle"><tspan x="111.456" dy="9">HV+</tspan></text><text x="281.736" y="-748.9440000000001" dominant-baseline="central" fill="black" font-size="9" font-family="sans" text-anchor="middle"><tspan x="281.736" dy="9">── HV SECTION ──</tspan></text><text x="931.8960000000001" y="-748.9440000000001" dominant-baseline="central" fill="black" font-size="9" font-family="sans" text-anchor="middle"><tspan x="931.8960000000001" dy="9">── LV SECTION ──</tspan></text><text x="239.94" y="-652.824" dominant-baseline="central" fill="black" font-size="9" font-family="sans" text-anchor="start"><tspan x="239.94" dy="9">R_slow1</tspan><tspan x="239.94" dy="9">4.7kΩ/5W</tspan></text><text x="239.94" y="-575.424" dominant-baseline="central" fill="black" font-size="9" font-family="sans" text-anchor="start"><tspan x="239.94" dy="9">R_slow2</tspan><tspan x="239.94" dy="9">4.7kΩ/5W</tspan></text><text x="239.94" y="-498.024" dominant-baseline="central" fill="black" font-size="9" font-family="sans" text-anchor="start"><tspan x="239.94" dy="9">R_slow3</tspan><tspan x="239.94" dy="9">4.7kΩ/5W</tspan></text><text x="239.94" y="-420.624" dominant-baseline="central" fill="black" font-size="9" font-family="sans" text-anchor="start"><tspan x="239.94" dy="9">R_slow4</tspan><tspan x="239.94" dy="9">4.7kΩ/5W</tspan></text><text x="239.94" y="-343.22400000000005" dominant-baseline="central" fill="black" font-size="9" font-family="sans" text-anchor="start"><tspan x="239.94" dy="9">R_slow5</tspan><tspan x="239.94" dy="9">4.7kΩ/5W</tspan></text><text x="363.78000000000003" y="-652.824" dominant-baseline="central" fill="black" font-size="9" font-family="sans" text-anchor="start"><tspan x="363.78000000000003" dy="9">R5</tspan><tspan x="363.78000000000003" dy="9">470kΩ/3W</tspan></text><text x="357.588" y="-586.1160000000001" dominant-baseline="central" fill="black" font-size="9" font-family="sans" text-anchor="start"><tspan x="357.588" dy="9">D9</tspan><tspan x="357.588" dy="9">BZX85C12</tspan><tspan x="357.588" dy="9">12V</tspan></text><text x="363.78000000000003" y="-498.024" dominant-baseline="central" fill="black" font-size="9" font-family="sans" text-anchor="start"><tspan x="363.78000000000003" dy="9">C_byp2</tspan><tspan x="363.78000000000003" dy="9">100nF/50V</tspan></text><text x="456.66" y="-652.824" dominant-baseline="central" fill="black" font-size="9" font-family="sans" text-anchor="start"><tspan x="456.66" dy="9">R_fast</tspan><tspan x="456.66" dy="9">50Ω/7W</tspan></text><text x="430.34400000000005" y="-598.5" dominant-baseline="central" fill="black" font-size="9" font-family="sans" text-anchor="end"><tspan x="430.34400000000005" dy="9">Q2</tspan><tspan x="430.34400000000005" dy="9">STP10NK80Z</tspan><tspan x="430.34400000000005" dy="9">800V 9A</tspan></text><text x="517.5480000000001" y="-613.98" dominant-baseline="ideographic" fill="black" font-size="9" font-family="sans" text-anchor="middle"><tspan x="517.5480000000001" dy="9">R4</tspan><tspan x="517.5480000000001" dy="9">100Ω</tspan></text><text x="642.4200000000001" y="-652.824" dominant-baseline="central" fill="black" font-size="9" font-family="sans" text-anchor="start"><tspan x="642.4200000000001" dy="9">R1</tspan><tspan x="642.4200000000001" dy="9">1MΩ/3W</tspan></text><text x="642.4200000000001" y="-575.424" dominant-baseline="central" fill="black" font-size="9" font-family="sans" text-anchor="start"><tspan x="642.4200000000001" dy="9">R2</tspan><tspan x="642.4200000000001" dy="9">10kΩ</tspan></text><text x="702.7920000000001" y="-637.2" dominant-baseline="ideographic" fill="black" font-size="9" font-family="sans" text-anchor="start"><tspan x="702.7920000000001" dy="9">R3</tspan><tspan x="702.7920000000001" dy="9">100kΩ/0.6W</tspan></text><text x="733.752" y="-616.962" dominant-baseline="central" fill="black" font-size="9" font-family="sans" text-anchor="start"><tspan x="733.752" dy="9">Q1</tspan><tspan x="733.752" dy="9">MPSA42</tspan></text><text x="890.1" y="-652.824" dominant-baseline="central" fill="black" font-size="9" font-family="sans" text-anchor="start"><tspan x="890.1" dy="9">R_LED1</tspan><tspan x="890.1" dy="9">100kΩ/0.6W</tspan></text><text x="890.1" y="-575.424" dominant-baseline="central" fill="black" font-size="9" font-family="sans" text-anchor="start"><tspan x="890.1" dy="9">R_LED2</tspan><tspan x="890.1" dy="9">100kΩ/0.6W</tspan></text><text x="890.1" y="-498.024" dominant-baseline="central" fill="black" font-size="9" font-family="sans" text-anchor="start"><tspan x="890.1" dy="9">R_LED3</tspan><tspan x="890.1" dy="9">100kΩ/0.6W</tspan></text><text x="890.1" y="-420.624" dominant-baseline="central" fill="black" font-size="9" font-family="sans" text-anchor="start"><tspan x="890.1" dy="9">R_LED4</tspan><tspan x="890.1" dy="9">100kΩ/0.6W</tspan></text><text x="883.9079999999999" y="-353.916" dominant-baseline="central" fill="black" font-size="9" font-family="sans" text-anchor="start"><tspan x="883.9079999999999" dy="9">D_LED</tspan><tspan x="883.9079999999999" dy="9">BZX55C8V2</tspan><tspan x="883.9079999999999" dy="9">8.2V</tspan></text><text x="890.1" y="-265.824" dominant-baseline="central" fill="black" font-size="9" font-family="sans" text-anchor="start"><tspan x="890.1" dy="9">LED1</tspan><tspan x="890.1" dy="9">Red  Vf≈2V</tspan></text><text x="1044.9" y="-652.824" dominant-baseline="central" fill="black" font-size="9" font-family="sans" text-anchor="start"><tspan x="1044.9" dy="9">R_sig1</tspan><tspan x="1044.9" dy="9">100kΩ/0.6W</tspan></text><text x="1044.9" y="-575.424" dominant-baseline="central" fill="black" font-size="9" font-family="sans" text-anchor="start"><tspan x="1044.9" dy="9">R_sig2</tspan><tspan x="1044.9" dy="9">100kΩ/0.6W</tspan></text><text x="1044.9" y="-498.024" dominant-baseline="central" fill="black" font-size="9" font-family="sans" text-anchor="start"><tspan x="1044.9" dy="9">R_sig3</tspan><tspan x="1044.9" dy="9">100kΩ/0.6W</tspan></text><text x="1044.9" y="-420.624" dominant-baseline="central" fill="black" font-size="9" font-family="sans" text-anchor="start"><tspan x="1044.9" dy="9">R_sig4</tspan><tspan x="1044.9" dy="9">100kΩ/0.6W</tspan></text><text x="1044.9" y="-343.22400000000005" dominant-baseline="central" fill="black" font-size="9" font-family="sans" text-anchor="start"><tspan x="1044.9" dy="9">R_sig5</tspan><tspan x="1044.9" dy="9">100kΩ/0.6W</tspan></text><text x="1044.9" y="-265.824" dominant-baseline="central" fill="black" font-size="9" font-family="sans" text-anchor="start"><tspan x="1044.9" dy="9">R_sig_bot</tspan><tspan x="1044.9" dy="9">100kΩ/0.6W</tspan></text><text x="1044.9" y="-188.424" dominant-baseline="central" fill="black" font-size="9" font-family="sans" text-anchor="start"><tspan x="1044.9" dy="9">R_cal</tspan><tspan x="1044.9" dy="9">10kΩ trim</tspan></text><text x="1261.6200000000001" y="-652.824" dominant-baseline="central" fill="black" font-size="9" font-family="sans" text-anchor="start"><tspan x="1261.6200000000001" dy="9">R_drop1</tspan><tspan x="1261.6200000000001" dy="9">15kΩ/3W</tspan></text><text x="1261.6200000000001" y="-575.424" dominant-baseline="central" fill="black" font-size="9" font-family="sans" text-anchor="start"><tspan x="1261.6200000000001" dy="9">R_drop2</tspan><tspan x="1261.6200000000001" dy="9">15kΩ/3W</tspan></text><text x="1261.6200000000001" y="-498.024" dominant-baseline="central" fill="black" font-size="9" font-family="sans" text-anchor="start"><tspan x="1261.6200000000001" dy="9">R_drop3</tspan><tspan x="1261.6200000000001" dy="9">15kΩ/3W</tspan></text><text x="1261.6200000000001" y="-420.624" dominant-baseline="central" fill="black" font-size="9" font-family="sans" text-anchor="start"><tspan x="1261.6200000000001" dy="9">R_drop4</tspan><tspan x="1261.6200000000001" dy="9">15kΩ/3W</tspan></text><text x="1255.4279999999999" y="-353.916" dominant-baseline="central" fill="black" font-size="9" font-family="sans" text-anchor="start"><tspan x="1255.4279999999999" dy="9">D_Vcc</tspan><tspan x="1255.4279999999999" dy="9">1N4744A</tspan><tspan x="1255.4279999999999" dy="9">15V</tspan></text><text x="1120.1328" y="-356.29376" dominant-baseline="central" fill="black" font-size="14" font-family="sans" text-anchor="middle"><tspan x="1120.1328" dy="14">+</tspan></text><text x="1137.78" y="-343.22400000000005" dominant-baseline="central" fill="black" font-size="9" font-family="sans" text-anchor="start"><tspan x="1137.78" dy="9">C_Vcc</tspan><tspan x="1137.78" dy="9">10µF/25V</tspan></text><text x="1199.7" y="-343.22400000000005" dominant-baseline="central" fill="black" font-size="9" font-family="sans" text-anchor="start"><tspan x="1199.7" dy="9">C_byp1</tspan><tspan x="1199.7" dy="9">100nF/50V</tspan></text><text x="1458.2160000000001" y="-480.996" dominant-baseline="central" fill="black" font-size="9" font-family="sans" text-anchor="middle"><tspan x="1458.2160000000001" dy="9">VOLTMETER</tspan><tspan x="1458.2160000000001" dy="9">(3-pin connector)</tspan></text><text x="1408.68" y="-383.616" dominant-baseline="central" fill="black" font-size="9" font-family="sans" text-anchor="start"><tspan x="1408.68" dy="9">Vcc  15 V</tspan></text><text x="1408.68" y="-306.216" dominant-baseline="central" fill="black" font-size="9" font-family="sans" text-anchor="start"><tspan x="1408.68" dy="9">Signal  0–100 V</tspan></text><text x="1408.68" y="-12.096" dominant-baseline="central" fill="black" font-size="9" font-family="sans" text-anchor="start"><tspan x="1408.68" dy="9">GND</tspan></text><circle cx="0.0" cy="-340.56" r="2.322" style="stroke:black;fill:black;stroke-width:2.0;stroke-dasharray:-;" /><circle cx="-46.44" cy="-340.56" r="2.322" style="stroke:black;fill:white;stroke-width:2.0;stroke-dasharray:-;" /><text x="-51.858000000000004" y="-349.56" dominant-baseline="central" fill="black" font-size="9" font-family="sans" text-anchor="end"><tspan x="-51.858000000000004" dy="9">PROBE_A</tspan></text><circle cx="123.84" cy="-340.56" r="2.322" style="stroke:black;fill:black;stroke-width:2.0;stroke-dasharray:-;" /><circle cx="170.28" cy="-340.56" r="2.322" style="stroke:black;fill:white;stroke-width:2.0;stroke-dasharray:-;" /><text x="175.698" y="-349.56" dominant-baseline="central" fill="black" font-size="9" font-family="sans" text-anchor="start"><tspan x="175.698" dy="9">PROBE_B</tspan></text><circle cx="61.92" cy="-681.12" r="2.322" style="stroke:black;fill:black;stroke-width:2.0;stroke-dasharray:-;" /><circle cx="216.72" cy="-681.12" r="2.322" style="stroke:black;fill:black;stroke-width:2.0;stroke-dasharray:-;" /><circle cx="216.72" cy="-0.0" r="2.322" style="stroke:black;fill:black;stroke-width:2.0;stroke-dasharray:-;" /><circle cx="340.56" cy="-681.12" r="2.322" style="stroke:black;fill:black;stroke-width:2.0;stroke-dasharray:-;" /><circle cx="340.56" cy="-526.32" r="2.322" style="stroke:black;fill:white;stroke-width:2.0;stroke-dasharray:-;" /><text x="345.978" y="-535.32" dominant-baseline="central" fill="black" font-size="9" font-family="sans" text-anchor="start"><tspan x="345.978" dy="9">GATE_CTRL</tspan></text><circle cx="340.56" cy="-0.0" r="2.322" style="stroke:black;fill:black;stroke-width:2.0;stroke-dasharray:-;" /><circle cx="433.44" cy="-681.12" r="2.322" style="stroke:black;fill:black;stroke-width:2.0;stroke-dasharray:-;" /><circle cx="433.44" cy="-0.0" r="2.322" style="stroke:black;fill:black;stroke-width:2.0;stroke-dasharray:-;" /><circle cx="553.152" cy="-580.5" r="2.322" style="stroke:black;fill:white;stroke-width:2.0;stroke-dasharray:-;" /><text x="558.57" y="-589.5" dominant-baseline="central" fill="black" font-size="9" font-family="sans" text-anchor="start"><tspan x="558.57" dy="9">GATE_CTRL</tspan></text><circle cx="619.2" cy="-681.12" r="2.322" style="stroke:black;fill:black;stroke-width:2.0;stroke-dasharray:-;" /><circle cx="619.2" cy="-603.72" r="2.322" style="stroke:black;fill:black;stroke-width:2.0;stroke-dasharray:-;" /><circle cx="619.2" cy="-0.0" r="2.322" style="stroke:black;fill:black;stroke-width:2.0;stroke-dasharray:-;" /><circle cx="719.8716" cy="-0.0" r="2.322" style="stroke:black;fill:black;stroke-width:2.0;stroke-dasharray:-;" /><circle cx="719.8716" cy="-702.6888" r="2.322" style="stroke:black;fill:white;stroke-width:2.0;stroke-dasharray:-;" /><text x="725.2896" y="-711.6888" dominant-baseline="central" fill="black" font-size="9" font-family="sans" text-anchor="start"><tspan x="725.2896" dy="9">GATE_CTRL</tspan></text><circle cx="866.88" cy="-681.12" r="2.322" style="stroke:black;fill:black;stroke-width:2.0;stroke-dasharray:-;" /><circle cx="866.88" cy="-0.0" r="2.322" style="stroke:black;fill:black;stroke-width:2.0;stroke-dasharray:-;" /><circle cx="1021.6800000000001" cy="-681.12" r="2.322" style="stroke:black;fill:black;stroke-width:2.0;stroke-dasharray:-;" /><circle cx="1021.6800000000001" cy="-294.12" r="2.322" style="stroke:black;fill:black;stroke-width:2.0;stroke-dasharray:-;" /><circle cx="1021.6800000000001" cy="-0.0" r="2.322" style="stroke:black;fill:black;stroke-width:2.0;stroke-dasharray:-;" /><circle cx="1238.4" cy="-681.12" r="2.322" style="stroke:black;fill:black;stroke-width:2.0;stroke-dasharray:-;" /><circle cx="1238.4" cy="-371.52" r="2.322" style="stroke:black;fill:black;stroke-width:2.0;stroke-dasharray:-;" /><circle cx="1238.4" cy="-0.0" r="2.322" style="stroke:black;fill:black;stroke-width:2.0;stroke-dasharray:-;" /><circle cx="1114.56" cy="-371.52" r="2.322" style="stroke:black;fill:black;stroke-width:2.0;stroke-dasharray:-;" /><circle cx="1176.48" cy="-371.52" r="2.322" style="stroke:black;fill:black;stroke-width:2.0;stroke-dasharray:-;" /><circle cx="1399.392" cy="-0.0" r="2.322" style="stroke:black;fill:black;stroke-width:2.0;stroke-dasharray:-;" /><circle cx="1399.392" cy="-294.12" r="2.322" style="stroke:black;fill:black;stroke-width:2.0;stroke-dasharray:-;" /><circle cx="1399.392" cy="-371.52" r="2.322" style="stroke:black;fill:black;stroke-width:2.0;stroke-dasharray:-;" /></svg>