M48
; DRILL file KiCad 10.0.6 date 2026-10-01T16:20:21
; FORMAT={-:-/ absolute / metric / decimal}
; #@! TF.CreationDate,2026-10-01T16:20:21+03:00
; #@! TF.GenerationSoftware,Kicad,Pcbnew,10.0.6
; #@! TF.FileFunction,MixedPlating,1,2
FMAT,2
METRIC
; #@! TA.AperFunction,Plated,PTH,ComponentDrill
T1C0.800
; #@! TA.AperFunction,Plated,PTH,ComponentDrill
T2C1.000
; #@! TA.AperFunction,Plated,PTH,ComponentDrill
T3C1.100
; #@! TA.AperFunction,Plated,PTH,ComponentDrill
T4C1.200
; #@! TA.AperFunction,Plated,PTH,ComponentDrill
T5C1.300
; #@! TA.AperFunction,Plated,PTH,ComponentDrill
T6C1.400
; #@! TA.AperFunction,Plated,PTH,ComponentDrill
T7C2.350
; #@! TA.AperFunction,Plated,PTH,ComponentDrill
T8C3.400
; #@! TA.AperFunction,NonPlated,NPTH,ComponentDrill
T9C3.200
%
G90
G05
T1
X102.0Y-57.46
X102.0Y-60.0
X108.0Y-59.0
X110.54Y-59.0
X116.0Y-60.0
X116.0Y-94.0
X116.0Y-99.08
X118.54Y-60.0
X121.0Y-99.08
X121.0Y-104.16
X121.08Y-60.0
X125.0Y-94.0
X125.0Y-99.08
X126.0Y-104.16
X126.0Y-109.24
X126.0Y-117.5
X126.0Y-120.04
X127.0Y-65.84
X129.0Y-54.0
X129.0Y-59.0
X129.54Y-65.84
X130.0Y-99.08
X130.0Y-104.16
X130.0Y-117.5
X130.0Y-120.04
X131.0Y-109.24
X131.0Y-114.32
X135.0Y-104.16
X135.0Y-109.24
X136.0Y-114.32
X136.0Y-119.4
X139.0Y-117.0
X139.0Y-122.08
X140.0Y-109.24
X140.0Y-114.32
X144.5Y-107.5
X144.5Y-112.58
T2
X106.0Y-65.84
X106.0Y-76.0
X112.0Y-65.84
X112.0Y-76.0
X116.0Y-120.0
X118.54Y-120.0
X144.5Y-117.46
X144.5Y-119.96
T3
X58.0Y-67.0
X58.0Y-77.16
X67.52Y-67.0
X67.52Y-77.16
X78.5Y-67.0
X78.5Y-77.16
X88.02Y-67.0
X88.02Y-77.16
X120.84Y-74.0
X120.84Y-84.16
X122.0Y-115.42
X122.0Y-120.5
X124.5Y-57.42
X124.5Y-62.5
T4
X133.42Y-64.0
X138.5Y-64.0
X143.58Y-64.0
T5
X128.34Y-74.0
X138.5Y-74.0
T6
X58.0Y-58.4
X64.0Y-105.0
X64.0Y-115.16
X67.52Y-58.4
X75.0Y-105.0
X75.0Y-115.16
X78.5Y-58.4
X86.0Y-105.0
X86.0Y-115.16
X88.02Y-58.4
X97.0Y-105.0
X97.0Y-115.16
X108.0Y-105.0
X108.0Y-115.16
T7
X65.0Y-90.0
X80.0Y-90.0
X95.0Y-90.0
X110.0Y-90.0
T8
X72.5Y-90.0
X102.5Y-90.0
T9
X55.5Y-119.5
X144.0Y-90.0
M30
